<?xml version="1.0" standalone="no"?>
<!DOCTYPE svg PUBLIC "-//W3C//DTD SVG 20010904//EN"
 "http://www.w3.org/TR/2001/REC-SVG-20010904/DTD/svg10.dtd">
<svg version="1.0" xmlns="http://www.w3.org/2000/svg"
 width="512.000000pt" height="512.000000pt" viewBox="0 0 512.000000 512.000000"
 preserveAspectRatio="xMidYMid meet">

<g transform="translate(0.000000,512.000000) scale(0.100000,-0.100000)"
fill="#0A0B0A" stroke="none">
<path d="M300 5098 c0 -32 69 -806 76 -845 l5 -33 1724 0 1725 0 0 -22 c0 -29
-68 -809 -76 -865 l-5 -43 -1645 0 c-1308 0 -1644 -3 -1644 -12 0 -19 68 -774
75 -836 l6 -52 1565 0 c1483 0 1564 -1 1564 -17 0 -22 -101 -1157 -103 -1160
-1 0 -228 -62 -505 -137 l-503 -135 -502 135 c-276 75 -503 137 -504 138 -2 1
-63 685 -63 704 0 9 -98 12 -455 12 l-456 0 7 -62 c3 -35 31 -352 63 -705 31
-353 59 -644 61 -647 3 -2 420 -119 927 -260 l923 -256 922 256 c508 140 925
257 927 260 5 4 410 4518 411 4572 l0 32 -2260 0 -2260 0 0 -22z"/>
</g>
</svg>
