<svg version="1.1" id="Layer_1" xmlns="http://www.w3.org/2000/svg" xmlns:xlink="http://www.w3.org/1999/xlink" x="0px" y="0px"
	 width="100%" viewBox="0 0 512 512" enable-background="new 0 0 512 512" xml:space="preserve">
<path fill="#0A0B0A" opacity="1.000000" stroke="none" 
	d="
M42.000000,1.000000 
	C184.687561,1.000000 327.375122,1.000000 470.632935,1.355622 
	C478.244843,3.759336 483.993378,12.542993 483.013275,19.188820 
	C482.110596,25.309336 481.562469,31.487585 481.021881,37.654755 
	C480.262665,46.316246 479.734436,54.998089 478.964294,63.658497 
	C477.703461,77.836586 476.296112,92.001595 475.012085,106.177689 
	C474.272675,114.340752 473.708557,122.519691 472.969299,130.682755 
	C471.685547,144.858871 470.284576,159.024414 469.015930,173.201828 
	C468.255768,181.696640 467.734375,190.212952 466.962067,198.706528 
	C465.703156,212.551376 464.277313,226.381012 463.018311,240.225845 
	C462.245880,248.719620 461.728668,257.236542 460.962585,265.730988 
	C459.698914,279.742157 458.286652,293.739960 457.015045,307.750488 
	C456.259186,316.078735 455.719543,324.426666 454.963806,332.754944 
	C453.692352,346.765442 452.286591,360.763794 451.015045,374.774292 
	C450.259216,383.102600 449.723663,391.450958 448.961731,399.778656 
	C447.695099,413.622864 446.033936,427.437622 445.077332,441.301910 
	C443.995667,456.978760 436.744629,466.818665 421.469696,471.005707 
	C398.868225,477.201111 376.291779,483.487640 353.693787,489.695770 
	C336.202179,494.501099 318.687744,499.223389 301.195312,504.025696 
	C290.452026,506.975128 279.731018,510.005798 269.000000,513.000000 
	C260.645752,513.000000 252.291534,513.000000 243.339478,512.620239 
	C236.398560,510.498352 230.052963,508.765167 223.712799,507.012390 
	C200.834213,500.687531 177.967606,494.319122 155.077026,488.037994 
	C134.192886,482.307434 113.304764,476.588959 92.376755,471.021667 
	C81.036163,468.004822 71.087151,459.350647 69.980118,447.393250 
	C69.379005,440.900452 68.603340,434.423676 68.019714,427.929474 
	C67.578880,423.024231 67.438522,418.090820 66.953056,413.190887 
	C65.697800,400.521667 64.204124,387.875183 63.039925,375.198120 
	C62.169605,365.721100 61.771488,356.201508 60.971191,346.717072 
	C59.733452,332.048462 58.322639,317.394531 57.005623,302.732544 
	C56.624352,298.487915 56.381886,294.230103 55.956524,289.990295 
	C54.669086,277.157867 53.215366,264.341217 52.036068,251.499161 
	C51.180946,242.187286 50.766502,232.835541 49.963867,223.518097 
	C48.728924,209.182159 47.302082,194.862854 46.010628,180.531647 
	C45.275513,172.374191 44.734783,164.198700 43.951530,156.046234 
	C42.702282,143.043503 41.227295,130.062057 40.032879,117.054611 
	C39.192997,107.908112 38.756382,98.725128 37.968845,89.573143 
	C36.720993,75.071739 35.379272,60.577877 33.973057,46.090942 
	C33.486229,41.075603 32.545673,36.103851 32.074615,31.087566 
	C31.617641,26.221256 31.079617,21.302006 31.327702,16.444336 
	C31.692818,9.295162 36.162590,4.578787 42.000000,1.000000 
M202.527863,145.000000 
	C258.190613,145.000000 313.853394,145.022888 369.516052,144.956177 
	C373.929871,144.950882 378.372009,144.535721 382.749023,143.933304 
	C388.282074,143.171753 394.333557,137.759903 394.914307,132.748840 
	C395.856384,124.619461 396.647430,116.446152 396.916382,108.272102 
	C397.225891,98.865662 390.087189,92.000595 380.703064,92.000496 
	C298.875305,91.999641 217.047134,92.121582 135.220413,91.832901 
	C125.893051,91.799995 119.208641,98.090782 118.331917,104.391388 
	C117.134254,112.998329 118.176926,121.924881 118.361656,130.712265 
	C118.430626,133.992981 118.729187,137.272888 119.023575,140.544128 
	C120.329117,155.051117 121.707977,169.551590 122.985992,184.060944 
	C123.734299,192.556427 124.250298,201.072769 125.035484,209.564514 
	C126.284676,223.074448 127.901649,236.554260 128.924255,250.079987 
	C129.687561,260.176056 138.504318,271.172333 150.212143,271.114502 
	C203.207230,270.852661 256.204346,270.998016 309.200714,271.002014 
	C317.743835,271.002655 323.997772,275.415619 325.652527,283.497040 
	C326.311127,286.713287 325.307983,290.281555 324.992828,293.683258 
	C324.012909,304.260681 323.295319,314.873627 321.918610,325.399933 
	C320.490723,336.317474 312.405609,343.778107 302.660522,346.865814 
	C292.879730,349.964874 282.902374,352.846313 272.792267,354.380157 
	C264.166473,355.688843 255.136581,355.814789 246.457062,354.876495 
	C237.571945,353.916046 228.746582,351.502411 220.175629,348.826294 
	C213.540482,346.754639 206.599976,344.292236 201.115707,340.223602 
	C192.860352,334.099152 190.967316,324.497406 190.952759,314.488190 
	C190.934280,301.781647 181.873459,288.385559 166.764618,289.926910 
	C162.146332,290.398071 157.439392,289.999786 152.773041,290.000061 
	C142.451645,290.000702 134.751938,297.490845 135.079544,307.877716 
	C135.363876,316.892822 136.361618,325.884369 136.992264,334.889923 
	C137.692551,344.889954 138.206848,354.905243 139.078888,364.889709 
	C139.339981,367.879120 140.184280,370.932953 141.355362,373.706482 
	C145.351807,383.171295 152.746979,388.396545 162.593826,391.081696 
	C186.123337,397.498016 209.483185,404.540405 233.039688,410.851624 
	C240.967194,412.975586 249.380615,415.159729 257.394714,414.630890 
	C268.389557,413.905334 279.330536,411.074097 290.089294,408.337860 
	C310.309753,403.195221 330.367554,397.416077 350.524170,392.018005 
	C361.195496,389.160187 370.117096,384.111542 373.484985,372.865967 
	C374.771423,368.570435 374.579742,363.826691 375.014771,359.282715 
	C376.355347,345.279572 377.713287,331.277863 378.984894,317.268372 
	C379.740784,308.940674 380.274719,300.592773 381.036743,292.265717 
	C382.303528,278.422699 383.696869,264.591309 384.986755,250.750351 
	C385.413269,246.174042 384.957062,241.380783 386.165283,237.037445 
	C389.672699,224.428818 381.671661,217.960022 370.728790,217.972076 
	C315.565948,218.032867 260.397736,217.579559 205.243607,218.274521 
	C190.104904,218.465271 180.253815,204.184448 179.915634,192.857239 
	C179.726044,186.507248 178.246536,180.189011 178.155212,173.844849 
	C178.073776,168.188736 178.115479,162.191498 179.851883,156.921051 
	C183.198425,146.763412 191.429962,143.757172 202.527863,145.000000 
z"/>
<path fill="#FFFFFF" opacity="1.000000" stroke="none" 
	d="
M41.531342,1.000000 
	C36.162590,4.578787 31.692818,9.295162 31.327702,16.444336 
	C31.079617,21.302006 31.617641,26.221256 32.074615,31.087566 
	C32.545673,36.103851 33.486229,41.075603 33.973057,46.090942 
	C35.379272,60.577877 36.720993,75.071739 37.968845,89.573143 
	C38.756382,98.725128 39.192997,107.908112 40.032879,117.054611 
	C41.227295,130.062057 42.702282,143.043503 43.951530,156.046234 
	C44.734783,164.198700 45.275513,172.374191 46.010628,180.531647 
	C47.302082,194.862854 48.728924,209.182159 49.963867,223.518097 
	C50.766502,232.835541 51.180946,242.187286 52.036068,251.499161 
	C53.215366,264.341217 54.669086,277.157867 55.956524,289.990295 
	C56.381886,294.230103 56.624352,298.487915 57.005623,302.732544 
	C58.322639,317.394531 59.733452,332.048462 60.971191,346.717072 
	C61.771488,356.201508 62.169605,365.721100 63.039925,375.198120 
	C64.204124,387.875183 65.697800,400.521667 66.953056,413.190887 
	C67.438522,418.090820 67.578880,423.024231 68.019714,427.929474 
	C68.603340,434.423676 69.379005,440.900452 69.980118,447.393250 
	C71.087151,459.350647 81.036163,468.004822 92.376755,471.021667 
	C113.304764,476.588959 134.192886,482.307434 155.077026,488.037994 
	C177.967606,494.319122 200.834213,500.687531 223.712799,507.012390 
	C230.052963,508.765167 236.398560,510.498352 242.870834,512.620239 
	C162.377747,513.000000 81.755486,513.000000 1.066612,513.000000 
	C1.066612,342.333344 1.066612,171.666672 1.066612,1.000000 
	C14.410655,1.000000 27.736670,1.000000 41.531342,1.000000 
z"/>
<path fill="#FFFFFF" opacity="1.000000" stroke="none" 
	d="
M269.468658,513.000000 
	C279.731018,510.005798 290.452026,506.975128 301.195312,504.025696 
	C318.687744,499.223389 336.202179,494.501099 353.693787,489.695770 
	C376.291779,483.487640 398.868225,477.201111 421.469696,471.005707 
	C436.744629,466.818665 443.995667,456.978760 445.077332,441.301910 
	C446.033936,427.437622 447.695099,413.622864 448.961731,399.778656 
	C449.723663,391.450958 450.259216,383.102600 451.015045,374.774292 
	C452.286591,360.763794 453.692352,346.765442 454.963806,332.754944 
	C455.719543,324.426666 456.259186,316.078735 457.015045,307.750488 
	C458.286652,293.739960 459.698914,279.742157 460.962585,265.730988 
	C461.728668,257.236542 462.245880,248.719620 463.018311,240.225845 
	C464.277313,226.381012 465.703156,212.551376 466.962067,198.706528 
	C467.734375,190.212952 468.255768,181.696640 469.015930,173.201828 
	C470.284576,159.024414 471.685547,144.858871 472.969299,130.682755 
	C473.708557,122.519691 474.272675,114.340752 475.012085,106.177689 
	C476.296112,92.001595 477.703461,77.836586 478.964294,63.658497 
	C479.734436,54.998089 480.262665,46.316246 481.021881,37.654755 
	C481.562469,31.487585 482.110596,25.309336 483.013275,19.188820 
	C483.993378,12.542993 478.244843,3.759336 471.101593,1.355622 
	C484.992340,1.000000 498.984650,1.000000 512.982788,1.000000 
	C512.988525,171.565414 512.988525,342.130829 512.988525,513.000000 
	C431.979370,513.000000 350.958344,513.000000 269.468658,513.000000 
z"/>
<path fill="#FFFFFF" opacity="1.000000" stroke="none" 
	d="
M202.034073,145.000000 
	C191.429962,143.757172 183.198425,146.763412 179.851883,156.921051 
	C178.115479,162.191498 178.073776,168.188736 178.155212,173.844849 
	C178.246536,180.189011 179.726044,186.507248 179.915634,192.857239 
	C180.253815,204.184448 190.104904,218.465271 205.243607,218.274521 
	C260.397736,217.579559 315.565948,218.032867 370.728790,217.972076 
	C381.671661,217.960022 389.672699,224.428818 386.165283,237.037445 
	C384.957062,241.380783 385.413269,246.174042 384.986755,250.750351 
	C383.696869,264.591309 382.303528,278.422699 381.036743,292.265717 
	C380.274719,300.592773 379.740784,308.940674 378.984894,317.268372 
	C377.713287,331.277863 376.355347,345.279572 375.014771,359.282715 
	C374.579742,363.826691 374.771423,368.570435 373.484985,372.865967 
	C370.117096,384.111542 361.195496,389.160187 350.524170,392.018005 
	C330.367554,397.416077 310.309753,403.195221 290.089294,408.337860 
	C279.330536,411.074097 268.389557,413.905334 257.394714,414.630890 
	C249.380615,415.159729 240.967194,412.975586 233.039688,410.851624 
	C209.483185,404.540405 186.123337,397.498016 162.593826,391.081696 
	C152.746979,388.396545 145.351807,383.171295 141.355362,373.706482 
	C140.184280,370.932953 139.339981,367.879120 139.078888,364.889709 
	C138.206848,354.905243 137.692551,344.889954 136.992264,334.889923 
	C136.361618,325.884369 135.363876,316.892822 135.079544,307.877716 
	C134.751938,297.490845 142.451645,290.000702 152.773041,290.000061 
	C157.439392,289.999786 162.146332,290.398071 166.764618,289.926910 
	C181.873459,288.385559 190.934280,301.781647 190.952759,314.488190 
	C190.967316,324.497406 192.860352,334.099152 201.115707,340.223602 
	C206.599976,344.292236 213.540482,346.754639 220.175629,348.826294 
	C228.746582,351.502411 237.571945,353.916046 246.457062,354.876495 
	C255.136581,355.814789 264.166473,355.688843 272.792267,354.380157 
	C282.902374,352.846313 292.879730,349.964874 302.660522,346.865814 
	C312.405609,343.778107 320.490723,336.317474 321.918610,325.399933 
	C323.295319,314.873627 324.012909,304.260681 324.992828,293.683258 
	C325.307983,290.281555 326.311127,286.713287 325.652527,283.497040 
	C323.997772,275.415619 317.743835,271.002655 309.200714,271.002014 
	C256.204346,270.998016 203.207230,270.852661 150.212143,271.114502 
	C138.504318,271.172333 129.687561,260.176056 128.924255,250.079987 
	C127.901649,236.554260 126.284676,223.074448 125.035484,209.564514 
	C124.250298,201.072769 123.734299,192.556427 122.985992,184.060944 
	C121.707977,169.551590 120.329117,155.051117 119.023575,140.544128 
	C118.729187,137.272888 118.430626,133.992981 118.361656,130.712265 
	C118.176926,121.924881 117.134254,112.998329 118.331917,104.391388 
	C119.208641,98.090782 125.893051,91.799995 135.220413,91.832901 
	C217.047134,92.121582 298.875305,91.999641 380.703064,92.000496 
	C390.087189,92.000595 397.225891,98.865662 396.916382,108.272102 
	C396.647430,116.446152 395.856384,124.619461 394.914307,132.748840 
	C394.333557,137.759903 388.282074,143.171753 382.749023,143.933304 
	C378.372009,144.535721 373.929871,144.950882 369.516052,144.956177 
	C313.853394,145.022888 258.190613,145.000000 202.034073,145.000000 
z"/>
</svg>