<svg xmlns="http://www.w3.org/2000/svg" xmlns:xlink="http://www.w3.org/1999/xlink" version="1.1" width="1000" height="1000" viewBox="0 0 1000 1000" xml:space="preserve">
<desc>Created with Fabric.js 3.5.0</desc>
<defs>
</defs>
<rect x="0" y="0" width="100%" height="100%" fill="#ffffff"/>
<g transform="matrix(17.8138 0 0 17.8138 500.0003 471.4288)" id="728107">
<path style="stroke: none; stroke-width: 1; stroke-dasharray: none; stroke-linecap: butt; stroke-dashoffset: 0; stroke-linejoin: miter; stroke-miterlimit: 4; is-custom-font: none; font-file-url: none; fill: rgb(10,11,10); fill-rule: evenodd; opacity: 1;" vector-effect="non-scaling-stroke" transform=" translate(-25.5165, -15.218)" d="M 25.517 0 C 18.712 0 14.46 3.382 12.758 10.146 c 2.552 -3.382 5.529 -4.65 8.931 -3.805 c 1.941 0.482 3.329 1.882 4.864 3.432 c 2.502 2.524 5.398 5.445 11.722 5.445 c 6.804 0 11.057 -3.382 12.758 -10.145 c -2.551 3.382 -5.528 4.65 -8.93 3.804 c -1.942 -0.482 -3.33 -1.882 -4.865 -3.431 C 34.736 2.92 31.841 0 25.517 0 z M 12.758 15.218 C 5.954 15.218 1.701 18.6 0 25.364 c 2.552 -3.382 5.529 -4.65 8.93 -3.805 c 1.942 0.482 3.33 1.882 4.865 3.432 c 2.502 2.524 5.397 5.445 11.722 5.445 c 6.804 0 11.057 -3.381 12.758 -10.145 c -2.552 3.382 -5.529 4.65 -8.931 3.805 c -1.941 -0.483 -3.329 -1.883 -4.864 -3.432 c -2.502 -2.524 -5.398 -5.446 -11.722 -5.446 z" stroke-linecap="round"/>
</g>
</svg>