<?xml version="1.0" standalone="no"?>
<!DOCTYPE svg PUBLIC "-//W3C//DTD SVG 20010904//EN"
 "http://www.w3.org/TR/2001/REC-SVG-20010904/DTD/svg10.dtd">
<svg version="1.0" xmlns="http://www.w3.org/2000/svg"
 width="512.000000pt" height="512.000000pt" viewBox="0 0 512.000000 512.000000"
 preserveAspectRatio="xMidYMid meet">

<g transform="translate(0.000000,512.000000) scale(0.100000,-0.100000)"
fill="#0A0B0A" stroke="none">
<path d="M2315 5109 c-800 -83 -1501 -518 -1927 -1196 -487 -774 -516 -1777
-75 -2578 314 -571 831 -1002 1449 -1206 273 -90 488 -124 798 -124 291 0 482
27 730 102 805 243 1439 859 1700 1651 92 278 125 491 125 802 0 301 -32 513
-116 775 -124 390 -330 728 -622 1024 -399 403 -894 653 -1462 737 -123 18
-478 26 -600 13z m595 -170 c949 -134 1743 -850 1980 -1783 53 -209 73 -371
73 -596 0 -537 -161 -1018 -484 -1446 -93 -123 -265 -303 -389 -406 -641 -535
-1512 -695 -2309 -424 -320 109 -618 292 -875 537 -402 384 -646 851 -727
1394 -29 196 -29 494 0 690 53 356 178 683 371 972 103 156 168 236 298 367
549 556 1288 805 2062 695z"/>
<path d="M2305 4679 c-491 -62 -950 -293 -1289 -650 -78 -82 -175 -201 -222
-273 l-18 -29 254 7 c140 3 304 11 364 16 89 7 114 6 137 -5 34 -18 54 -71 40
-108 -17 -43 -48 -54 -186 -67 -71 -7 -130 -13 -131 -14 -3 -8 773 -2293 777
-2288 3 4 110 315 237 693 l230 685 -166 455 c-91 249 -166 455 -166 456 -1 0
-53 6 -116 12 -63 6 -127 16 -142 22 -51 21 -61 105 -17 145 24 22 27 22 329
5 248 -14 531 -11 769 9 129 10 157 4 180 -44 9 -20 11 -38 5 -59 -15 -51 -46
-64 -184 -77 -69 -6 -127 -13 -129 -16 -3 -3 756 -2274 763 -2281 3 -4 254
796 297 945 132 463 102 710 -137 1104 -76 126 -129 231 -149 300 -20 71 -21
182 -1 251 41 142 180 257 311 257 25 0 45 4 45 8 0 5 -39 40 -87 79 -315 254
-696 414 -1103 463 -100 12 -395 11 -495 -1z"/>
<path d="M4442 3473 c16 -195 -22 -474 -95 -693 -19 -58 -186 -541 -371 -1074
-185 -532 -336 -972 -336 -977 0 -28 264 167 394 292 358 341 585 800 646
1299 5 46 10 154 10 240 0 246 -30 439 -105 665 -36 111 -136 345 -147 345 -2
0 0 -44 4 -97z"/>
<path d="M590 3375 c-100 -226 -160 -531 -160 -820 0 -469 142 -893 428 -1279
175 -235 470 -485 729 -615 l42 -21 -13 38 c-8 20 -231 631 -496 1357 -265
726 -488 1336 -495 1355 l-13 35 -22 -50z"/>
<path d="M2277 1443 c-175 -509 -317 -927 -315 -929 7 -7 126 -35 233 -55 142
-27 447 -37 595 -20 176 21 470 90 470 112 0 9 -649 1789 -658 1806 -4 6 -150
-405 -325 -914z"/>
</g>
</svg>
