<?xml version="1.0" standalone="no"?>
<!DOCTYPE svg PUBLIC "-//W3C//DTD SVG 20010904//EN"
 "http://www.w3.org/TR/2001/REC-SVG-20010904/DTD/svg10.dtd">
<svg version="1.0" xmlns="http://www.w3.org/2000/svg"
 width="512.000000pt" height="512.000000pt" viewBox="0 0 512.000000 512.000000"
 preserveAspectRatio="xMidYMid meet">

<g transform="translate(0.000000,512.000000) scale(0.100000,-0.100000)"
fill="#0A0B0A" stroke="none">
<path d="M1684 4579 c-294 -49 -509 -303 -508 -599 1 -110 19 -183 72 -285 51
-97 154 -199 252 -248 130 -64 154 -67 537 -67 l343 0 0 605 0 605 -322 -1
c-178 -1 -346 -5 -374 -10z"/>
<path d="M2600 3985 l0 -606 363 3 c350 3 364 4 427 26 178 64 320 204 380
375 31 87 38 258 15 347 -36 139 -134 278 -253 356 -31 21 -95 51 -142 68
l-85 31 -352 3 -353 4 0 -607z"/>
<path d="M1621 3144 c-200 -54 -365 -220 -427 -430 -23 -79 -23 -229 0 -308
50 -169 164 -310 306 -380 131 -64 147 -66 533 -66 l347 0 0 600 0 600 -352
-1 c-275 0 -365 -4 -407 -15z"/>
<path d="M3045 3145 c-206 -57 -375 -227 -430 -435 -19 -71 -19 -229 0 -300 8
-30 31 -89 51 -130 71 -142 221 -262 384 -305 71 -19 229 -19 300 0 210 56
379 225 435 435 19 71 19 229 0 300 -56 210 -225 379 -435 435 -68 18 -237 18
-305 0z"/>
<path d="M1630 1724 c-206 -53 -374 -219 -436 -429 -27 -94 -24 -239 9 -340
63 -190 213 -337 407 -396 94 -29 235 -31 325 -5 162 48 308 166 378 306 64
130 67 154 67 537 l0 343 -347 -1 c-269 0 -361 -4 -403 -15z"/>
</g>
</svg>
